HIERARCHY
ROOT pelvis
{
	OFFSET 0.003123 -0.351407 0.012037
	CHANNELS 6 Xposition Yposition Zposition Zrotation Yrotation Xrotation 
	JOINT left_hip
	{
		OFFSET 0.058189 -0.092763 -0.026001
		CHANNELS 3 Zrotation Yrotation Xrotation
		JOINT left_knee
		{
			OFFSET 0.054695 -0.378753 -0.009396
			CHANNELS 3 Zrotation Yrotation Xrotation
			JOINT left_ankle
			{
				OFFSET -0.043453 -0.403059 -0.031876
				CHANNELS 3 Zrotation Yrotation Xrotation
				JOINT left_foot
				{
					OFFSET 0.047257 -0.057997 0.118216
					CHANNELS 3 Zrotation Yrotation Xrotation
					End Site
					{
						OFFSET 0.000000 0.000000 0.000000
					}
				}
			}
		}
	}
	JOINT right_hip
	{
		OFFSET -0.063267 -0.103908 -0.021250
		CHANNELS 3 Zrotation Yrotation Xrotation
		JOINT right_knee
		{
			OFFSET -0.044210 -0.362380 -0.016824
			CHANNELS 3 Zrotation Yrotation Xrotation
			JOINT right_ankle
			{
				OFFSET 0.015417 -0.410728 -0.020192
				CHANNELS 3 Zrotation Yrotation Xrotation
				JOINT right_foot
				{
					OFFSET -0.038812 -0.058328 0.119049
					CHANNELS 3 Zrotation Yrotation Xrotation
					End Site
					{
						OFFSET 0.000000 0.000000 0.000000
					}
				}
			}
		}
	}
	JOINT spine_1
	{
		OFFSET -0.002763 0.109891 -0.027618
		CHANNELS 3 Zrotation Yrotation Xrotation
		JOINT spine_2
		{
			OFFSET 0.009448 0.131853 -0.005940
			CHANNELS 3 Zrotation Yrotation Xrotation
			JOINT spine_3
			{
				OFFSET -0.011330 0.052235 0.028447
				CHANNELS 3 Zrotation Yrotation Xrotation
				JOINT neck
				{
					OFFSET -0.012164 0.165167 -0.031615
					CHANNELS 3 Zrotation Yrotation Xrotation
					JOINT head
					{
						OFFSET 0.024783 0.160452 0.020737
						CHANNELS 3 Zrotation Yrotation Xrotation
						End Site
						{
							OFFSET 0.000000 0.000000 0.000000
						}
					}
				}
				JOINT left_collar
				{
					OFFSET 0.046364 0.084944 -0.007220
					CHANNELS 3 Zrotation Yrotation Xrotation
					JOINT left_shoulder
					{
						OFFSET 0.119239 0.057728 -0.015461
						CHANNELS 3 Zrotation Yrotation Xrotation
						JOINT left_elbow
						{
							OFFSET 0.254123 -0.072151 -0.042459
							CHANNELS 3 Zrotation Yrotation Xrotation
							JOINT left_wrist
							{
								OFFSET 0.251987 0.023221 -0.002472
								CHANNELS 3 Zrotation Yrotation Xrotation
								JOINT left_index_1
								{
									OFFSET 0.101902 -0.008688 0.019351
									CHANNELS 3 Zrotation Yrotation Xrotation
									JOINT left_index_2
									{
										OFFSET 0.030149 -0.011154 0.001151
										CHANNELS 3 Zrotation Yrotation Xrotation
										JOINT left_index_3
										{
											OFFSET 0.006504 -0.021577 -0.002433
											CHANNELS 3 Zrotation Yrotation Xrotation
											End Site
											{
												OFFSET 0.000000 0.000000 0.000000
											}
										}
									}
								}
								JOINT left_middle_1
								{
									OFFSET 0.109398 -0.006328 -0.003981
									CHANNELS 3 Zrotation Yrotation Xrotation
									JOINT left_middle_2
									{
										OFFSET 0.026472 -0.015218 -0.004641
										CHANNELS 3 Zrotation Yrotation Xrotation
										JOINT left_middle_3
										{
											OFFSET 0.005022 -0.023347 -0.001911
											CHANNELS 3 Zrotation Yrotation Xrotation
											End Site
											{
												OFFSET 0.000000 0.000000 0.000000
											}
										}
									}
								}
								JOINT left_pinky_1
								{
									OFFSET 0.084047 -0.014539 -0.043750
									CHANNELS 3 Zrotation Yrotation Xrotation
									JOINT left_pinky_2
									{
										OFFSET 0.012124 -0.014448 -0.005375
										CHANNELS 3 Zrotation Yrotation Xrotation
										JOINT left_pinky_3
										{
											OFFSET 0.003798 -0.018853 0.000167
											CHANNELS 3 Zrotation Yrotation Xrotation
											End Site
											{
												OFFSET 0.000000 0.000000 0.000000
											}
										}
									}
								}
								JOINT left_ring_1
								{
									OFFSET 0.097444 -0.009268 -0.027345
									CHANNELS 3 Zrotation Yrotation Xrotation
									JOINT left_ring_2
									{
										OFFSET 0.023561 -0.016057 -0.001895
										CHANNELS 3 Zrotation Yrotation Xrotation
										JOINT left_ring_3
										{
											OFFSET 0.004257 -0.023548 0.000814
											CHANNELS 3 Zrotation Yrotation Xrotation
											End Site
											{
												OFFSET 0.000000 0.000000 0.000000
											}
										}
									}
								}
								JOINT left_thumb_1
								{
									OFFSET 0.040636 -0.017977 0.025611
									CHANNELS 3 Zrotation Yrotation Xrotation
									JOINT left_thumb_2
									{
										OFFSET 0.021637 -0.017639 0.011623
										CHANNELS 3 Zrotation Yrotation Xrotation
										JOINT left_thumb_3
										{
											OFFSET 0.024002 -0.008356 0.006548
											CHANNELS 3 Zrotation Yrotation Xrotation
											End Site
											{
												OFFSET 0.000000 0.000000 0.000000
											}
										}
									}
								}
							}
						}
					}
				}
				JOINT right_collar
				{
					OFFSET -0.047695 0.084339 -0.013400
					CHANNELS 3 Zrotation Yrotation Xrotation
					JOINT right_shoulder
					{
						OFFSET -0.102578 0.053524 -0.012669
						CHANNELS 3 Zrotation Yrotation Xrotation
						JOINT right_elbow
						{
							OFFSET -0.271150 -0.036492 -0.026467
							CHANNELS 3 Zrotation Yrotation Xrotation
							JOINT right_wrist
							{
								OFFSET -0.249267 -0.004533 -0.015325
								CHANNELS 3 Zrotation Yrotation Xrotation
								JOINT right_index_1
								{
									OFFSET -0.099881 -0.011783 0.019600
									CHANNELS 3 Zrotation Yrotation Xrotation
									JOINT right_index_2
									{
										OFFSET -0.030148 -0.011154 0.001151
										CHANNELS 3 Zrotation Yrotation Xrotation
										JOINT right_index_3
										{
											OFFSET -0.006505 -0.021577 -0.002432
											CHANNELS 3 Zrotation Yrotation Xrotation
											End Site
											{
												OFFSET 0.000000 0.000000 0.000000
											}
										}
									}
								}
								JOINT right_middle_1
								{
									OFFSET -0.107376 -0.009422 -0.003734
									CHANNELS 3 Zrotation Yrotation Xrotation
									JOINT right_middle_2
									{
										OFFSET -0.026472 -0.015218 -0.004641
										CHANNELS 3 Zrotation Yrotation Xrotation
										JOINT right_middle_3
										{
											OFFSET -0.005022 -0.023347 -0.001911
											CHANNELS 3 Zrotation Yrotation Xrotation
											End Site
											{
												OFFSET 0.000000 0.000000 0.000000
											}
										}
									}
								}
								JOINT right_pinky_1
								{
									OFFSET -0.082027 -0.017634 -0.043503
									CHANNELS 3 Zrotation Yrotation Xrotation
									JOINT right_pinky_2
									{
										OFFSET -0.012123 -0.014448 -0.005374
										CHANNELS 3 Zrotation Yrotation Xrotation
										JOINT right_pinky_3
										{
											OFFSET -0.003798 -0.018852 0.000167
											CHANNELS 3 Zrotation Yrotation Xrotation
											End Site
											{
												OFFSET 0.000000 0.000000 0.000000
											}
										}
									}
								}
								JOINT right_ring_1
								{
									OFFSET -0.095423 -0.012362 -0.027099
									CHANNELS 3 Zrotation Yrotation Xrotation
									JOINT right_ring_2
									{
										OFFSET -0.023561 -0.016057 -0.001895
										CHANNELS 3 Zrotation Yrotation Xrotation
										JOINT right_ring_3
										{
											OFFSET -0.004257 -0.023548 0.000816
											CHANNELS 3 Zrotation Yrotation Xrotation
											End Site
											{
												OFFSET 0.000000 0.000000 0.000000
											}
										}
									}
								}
								JOINT right_thumb_1
								{
									OFFSET -0.038613 -0.021074 0.025861
									CHANNELS 3 Zrotation Yrotation Xrotation
									JOINT right_thumb_2
									{
										OFFSET -0.021636 -0.017639 0.011623
										CHANNELS 3 Zrotation Yrotation Xrotation
										JOINT right_thumb_3
										{
											OFFSET -0.024004 -0.008353 0.006547
											CHANNELS 3 Zrotation Yrotation Xrotation
											End Site
											{
												OFFSET 0.000000 0.000000 0.000000
											}
										}
									}
								}
							}
						}
					}
				}
			}
		}
	}
}
MOTION
Frames: 4
Frame Time: 0.050000
-0.024471 0.970434 0.170853 4.523016 -13.520951 -12.927973 -0.039511 -0.145110 -0.963526 7.088039 -2.298056 10.095626 -16.448399 -24.099475 9.118000 0.000000 0.000000 0.000000 -1.319646 -0.792689 10.458779 -2.707558 0.742703 9.422554 -5.910044 -13.022417 4.580774 0.000000 0.000000 0.000000 3.950958 -0.317350 4.238511 -10.159022 1.037625 -12.330777 15.014297 9.731505 31.678309 -1.615492 -0.593505 6.779662 0.000000 0.000000 0.000000 5.962462 4.304413 -1.331923 -37.529312 0.793504 -7.259562 -101.369328 -14.202537 21.113605 -9.166592 5.318020 -1.255113 -4.134261 3.963439 1.534590 19.407044 -3.000728 -8.023811 0.000000 0.000000 0.000000 -13.396357 -1.551624 -2.968348 0.049716 -1.058641 -4.333887 0.000000 0.000000 0.000000 3.606220 -14.588865 -19.690587 -54.955725 -16.922791 -20.594416 0.000000 0.000000 0.000000 -15.319108 -4.547998 -3.613777 -27.237917 -7.837612 -13.794122 0.000000 0.000000 0.000000 19.680300 7.521500 -3.946363 -7.667470 -15.793894 -2.231883 0.000000 0.000000 0.000000 -0.641743 16.339423 8.343923 50.051330 20.876644 0.303438 21.663225 19.360753 2.180395 6.609403 5.303379 6.621057 56.602677 -3.805156 0.023292 77.706036 -0.651846 -8.398867 0.000000 0.000000 0.000000 65.386516 13.761674 -10.536825 71.046717 19.918269 -24.643867 0.000000 0.000000 0.000000 8.134909 15.577835 -19.575129 96.289533 65.012776 -37.480342 0.000000 0.000000 0.000000 55.651634 17.686063 -6.955494 88.601105 31.402731 -18.928692 0.000000 0.000000 0.000000 -1.985421 -17.948410 16.379919 6.231437 6.882107 -0.131397 0.000000 0.000000 0.000000 
-0.024942 0.970434 0.168873 4.601402 -13.195790 -13.008549 -0.119461 -0.160426 -1.052580 7.082299 -2.293721 10.058158 -16.551574 -24.118039 9.266338 0.000000 0.000000 0.000000 -1.336498 -0.803508 10.554959 -2.683647 0.724282 9.239676 -6.034088 -13.267238 4.685444 0.000000 0.000000 0.000000 3.889546 -0.302869 4.133331 -10.252872 1.398683 -11.436941 14.890049 9.436148 31.016036 -1.616345 -0.568387 6.577858 0.000000 0.000000 0.000000 6.045079 4.173209 -1.259674 -37.500047 0.861923 -7.224823 -101.541350 -14.344479 21.354877 -8.967349 5.293824 -1.408092 -4.156955 3.977991 1.535754 19.693806 -2.969975 -7.861653 0.000000 0.000000 0.000000 -13.167598 -1.548011 -2.924738 0.301276 -1.021203 -4.147177 0.000000 0.000000 0.000000 4.308280 -14.487259 -19.451553 -54.204706 -16.839650 -20.714871 0.000000 0.000000 0.000000 -14.930377 -4.445896 -3.537943 -26.456599 -7.653201 -13.670467 0.000000 0.000000 0.000000 20.051939 6.951880 -4.886188 -8.472795 -15.329474 -1.808483 0.000000 0.000000 0.000000 -0.825318 16.091855 8.204965 50.341123 21.070274 0.421275 21.466688 19.321356 2.148056 6.226937 5.333518 6.248900 56.081373 -5.123621 -0.018253 78.661192 -1.804032 -7.702895 0.000000 0.000000 0.000000 66.356949 13.692655 -10.449864 70.476201 18.579881 -23.619775 0.000000 0.000000 0.000000 7.951715 13.705877 -17.529534 99.313558 61.436010 -33.313676 0.000000 0.000000 0.000000 57.551200 16.516842 -6.611809 87.197904 31.795777 -19.822354 0.000000 0.000000 0.000000 -2.766105 -18.697419 16.906139 7.120315 7.903744 -0.126849 0.000000 0.000000 0.000000 
-0.025649 0.970434 0.167553 4.613213 -13.136812 -12.968297 -0.048498 -0.166239 -1.104700 6.993067 -2.254874 9.895763 -16.575888 -24.028836 9.387078 0.000000 0.000000 0.000000 -1.239217 -0.805665 10.354749 -2.742213 0.743264 9.382795 -6.074975 -13.339169 4.700190 0.000000 0.000000 0.000000 3.931191 -0.293293 4.073371 -10.001469 1.035872 -12.197399 14.779481 9.481309 32.310979 -1.586786 -0.496641 6.069590 0.000000 0.000000 0.000000 6.114418 4.833347 -1.545473 -37.726508 0.810156 -7.326816 -101.380113 -14.328620 21.332369 -9.128317 5.660915 -1.275505 -3.898095 2.773291 1.111829 18.773158 -2.620981 -5.485376 0.000000 0.000000 0.000000 -13.290063 -1.462898 -2.909248 0.952163 -1.500587 -6.108372 0.000000 0.000000 0.000000 4.489914 -14.377061 -19.262816 -54.210194 -16.659339 -20.517961 0.000000 0.000000 0.000000 -15.001396 -4.320301 -3.481001 -26.699732 -7.621223 -13.544267 0.000000 0.000000 0.000000 19.914149 6.906444 -4.831471 -8.303567 -15.411059 -1.887713 0.000000 0.000000 0.000000 -0.821403 16.364758 8.329270 50.044277 21.455105 0.478297 21.360077 19.258127 2.125827 6.112375 5.763344 5.966372 55.949897 -4.072303 0.209717 77.352413 -3.184381 -6.861348 0.000000 0.000000 0.000000 64.475014 13.430471 -10.263479 69.401803 16.658580 -22.289085 0.000000 0.000000 0.000000 6.545726 16.102001 -20.013982 100.260648 55.778509 -29.167964 0.000000 0.000000 0.000000 55.219691 16.538170 -6.676952 88.080619 30.134241 -18.277357 0.000000 0.000000 0.000000 -2.671991 -18.384740 16.541115 6.959860 5.628321 0.426399 0.000000 0.000000 0.000000 
-0.026120 0.970434 0.165573 4.599461 -12.891524 -12.963185 -0.025240 -0.187168 -1.254066 6.991295 -2.249876 9.855923 -16.649460 -23.986056 9.540058 0.000000 0.000000 0.000000 -1.171139 -0.820161 10.339369 -2.689105 0.725685 9.248159 -6.179267 -13.548621 4.798620 0.000000 0.000000 0.000000 4.028978 -0.319776 4.356117 -10.131958 1.039747 -12.401845 15.097613 9.931403 32.005618 -1.365579 -0.637900 6.605771 0.000000 0.000000 0.000000 6.205995 3.799748 -1.046139 -37.830471 0.910482 -7.425495 -101.199618 -14.603485 21.399923 -9.136334 5.223688 -1.040738 -3.873993 3.748783 1.458923 19.482055 -2.985920 -7.754187 0.000000 0.000000 0.000000 -12.978593 -1.830375 -3.044370 0.518832 -1.023212 -4.145459 0.000000 0.000000 0.000000 3.468358 -13.691898 -18.208985 -53.664232 -15.941377 -19.886156 0.000000 0.000000 0.000000 -15.480639 -3.410990 -3.003353 -26.406429 -7.456850 -13.472757 0.000000 0.000000 0.000000 19.876190 7.270359 -4.331384 -7.919402 -16.833226 -2.388659 0.000000 0.000000 0.000000 -0.758849 15.760789 8.037834 50.240419 20.875453 0.446888 21.306483 19.318463 2.142105 6.409295 5.353008 6.319710 54.143294 -4.831051 0.158171 70.893044 -3.837896 -5.999976 0.000000 0.000000 0.000000 62.517760 11.215806 -10.270869 69.596012 15.306180 -21.050314 0.000000 0.000000 0.000000 4.346715 15.153184 -18.625485 104.162269 51.316767 -24.424107 0.000000 0.000000 0.000000 52.024689 15.434042 -6.809431 87.137526 27.916452 -17.165387 0.000000 0.000000 0.000000 -3.964495 -19.324877 17.271891 6.882706 5.633272 0.402090 0.000000 0.000000 0.000000 
